<svg width="736" height="101" viewBox="0 0 736 101" fill="none" xmlns="http://www.w3.org/2000/svg">
<path d="M-27.6638 69.9163C40.6002 104.938 160.503 84.7118 245.493 60.6205M306.78 40.6004C290.356 46.8246 269.294 53.8741 245.493 60.6205M306.78 40.6004L245.493 60.6205M306.78 40.6004C403.765 -0.444524 481.982 39.3069 508.967 64.3132" stroke="white" stroke-opacity="0.25" stroke-width="2"/>
<path d="M-27.6638 69.9163C40.6002 104.938 160.503 84.7118 245.493 60.6205M306.78 40.6004C290.356 46.8246 269.294 53.8741 245.493 60.6205M306.78 40.6004L245.493 60.6205M306.78 40.6004C403.765 -0.444524 481.982 39.3069 508.967 64.3132" stroke="white" stroke-opacity="0.25" stroke-width="2"/>
<ellipse cx="146.207" cy="80.354" rx="6" ry="4" transform="rotate(0.802972 146.207 80.354)" fill="#D9D9D9"/>
<ellipse cx="10.2485" cy="76.4483" rx="6" ry="4" transform="rotate(0.802972 10.2485 76.4483)" fill="#D9D9D9"/>
<ellipse cx="187.906" cy="66.437" rx="3.5" ry="2.5" transform="rotate(0.802972 187.906 66.437)" fill="#D9D9D9"/>
<circle cx="217.312" cy="73.3498" r="2" transform="rotate(0.802972 217.312 73.3498)" fill="#D9D9D9"/>
<circle cx="18.0233" cy="92.5588" r="2" transform="rotate(0.802972 18.0233 92.5588)" fill="#D9D9D9"/>
<circle cx="356.873" cy="34.3017" r="2" transform="rotate(0.802972 356.873 34.3017)" fill="#D9D9D9"/>
<circle cx="469.932" cy="30.8858" r="2" transform="rotate(0.802972 469.932 30.8858)" fill="#D9D9D9"/>
<ellipse cx="321.272" cy="41.3035" rx="3.5" ry="2.5" transform="rotate(0.802972 321.272 41.3035)" fill="#D9D9D9"/>
<ellipse cx="343.972" cy="27.1202" rx="6" ry="4" transform="rotate(0.802972 343.972 27.1202)" fill="#D9D9D9"/>
<ellipse cx="459.849" cy="36.7451" rx="6" ry="4" transform="rotate(0.802972 459.849 36.7451)" fill="#D9D9D9"/>
<path d="M734.536 35.8145C666.555 0.246582 546.494 19.5105 461.313 42.9194M399.868 62.4475C416.341 56.3552 437.459 49.4748 461.313 42.9194M399.868 62.4475L461.313 42.9194M399.868 62.4475C302.557 102.713 224.661 62.3358 197.877 37.1139" stroke="white" stroke-opacity="0.25" stroke-width="2"/>
<path d="M734.536 35.8145C666.555 0.246582 546.494 19.5105 461.313 42.9194M399.868 62.4475C416.341 56.3552 437.459 49.4748 461.313 42.9194M399.868 62.4475L461.313 42.9194M399.868 62.4475C302.557 102.713 224.661 62.3358 197.877 37.1139" stroke="white" stroke-opacity="0.25" stroke-width="2"/>
<ellipse cx="560.754" cy="23.9829" rx="6" ry="4" transform="rotate(-178.738 560.754 23.9829)" fill="#D9D9D9"/>
<ellipse cx="696.677" cy="28.9788" rx="6" ry="4" transform="rotate(-178.738 696.677 28.9788)" fill="#D9D9D9"/>
<ellipse cx="518.945" cy="37.565" rx="3.5" ry="2.5" transform="rotate(-178.738 518.945 37.565)" fill="#D9D9D9"/>
<ellipse cx="731.422" cy="18.2417" rx="3.5" ry="2.5" transform="rotate(-178.738 731.422 18.2417)" fill="#D9D9D9"/>
<circle cx="489.595" cy="30.4166" r="2" transform="rotate(-178.738 489.595 30.4166)" fill="#D9D9D9"/>
<circle cx="689.032" cy="12.8064" r="2" transform="rotate(-178.738 689.032 12.8064)" fill="#D9D9D9"/>
<circle cx="349.726" cy="68.3442" r="2" transform="rotate(-178.738 349.726 68.3442)" fill="#D9D9D9"/>
<circle cx="236.643" cy="70.8533" r="2" transform="rotate(-178.738 236.643 70.8533)" fill="#D9D9D9"/>
<ellipse cx="385.382" cy="61.6281" rx="3.5" ry="2.5" transform="rotate(-178.738 385.382 61.6281)" fill="#D9D9D9"/>
<ellipse cx="362.568" cy="75.6289" rx="6" ry="4" transform="rotate(-178.738 362.568 75.6289)" fill="#D9D9D9"/>
<ellipse cx="246.773" cy="65.0751" rx="6" ry="4" transform="rotate(-178.738 246.773 65.0751)" fill="#D9D9D9"/>
</svg>
