<svg width="111" height="828" viewBox="0 0 111 828" fill="none" xmlns="http://www.w3.org/2000/svg">
<path d="M86.4853 825.893C119.055 756.426 94.5753 637.319 67.4749 553.24M45.2865 492.704C52.0912 508.896 59.8858 529.695 67.4749 553.24M45.2865 492.704L67.4749 553.24M45.2865 492.704C0.816306 397.242 37.7591 317.659 61.7893 289.801" stroke="white" stroke-opacity="0.25" stroke-width="2"/>
<path d="M86.4853 825.893C119.055 756.426 94.5753 637.319 67.4749 553.24M45.2865 492.704C52.0912 508.896 59.8858 529.695 67.4749 553.24M45.2865 492.704L67.4749 553.24M45.2865 492.704C0.816306 397.242 37.7591 317.659 61.7893 289.801" stroke="white" stroke-opacity="0.25" stroke-width="2"/>
<ellipse cx="90.729" cy="651.761" rx="6" ry="4" transform="rotate(-91.2364 90.729 651.761)" fill="#D9D9D9"/>
<ellipse cx="91.6639" cy="787.772" rx="6" ry="4" transform="rotate(-91.2364 91.6639 787.772)" fill="#D9D9D9"/>
<ellipse cx="75.3369" cy="610.583" rx="3.5" ry="2.5" transform="rotate(-91.2364 75.3369 610.583)" fill="#D9D9D9"/>
<ellipse cx="103.906" cy="822.016" rx="3.5" ry="2.5" transform="rotate(-91.2364 103.906 822.016)" fill="#D9D9D9"/>
<circle cx="81.1989" cy="580.95" r="2" transform="rotate(-91.2364 81.1989 580.95)" fill="#D9D9D9"/>
<circle cx="107.488" cy="779.429" r="2" transform="rotate(-91.2364 107.488 779.429)" fill="#D9D9D9"/>
<circle cx="37.2092" cy="442.867" r="2" transform="rotate(-91.2364 37.2092 442.867)" fill="#D9D9D9"/>
<circle cx="29.7722" cy="330.001" r="2" transform="rotate(-91.2364 29.7722 330.001)" fill="#D9D9D9"/>
<ellipse cx="45.4735" cy="478.197" rx="3.5" ry="2.5" transform="rotate(-91.2364 45.4735 478.197)" fill="#D9D9D9"/>
<ellipse cx="30.4913" cy="456.015" rx="6" ry="4" transform="rotate(-91.2364 30.4913 456.015)" fill="#D9D9D9"/>
<ellipse cx="35.9865" cy="339.869" rx="6" ry="4" transform="rotate(-91.2364 35.9865 339.869)" fill="#D9D9D9"/>
<path d="M31.1415 0.607266C-3.77882 68.9231 16.6253 188.796 40.8426 273.75M60.9537 335.007C54.7051 318.593 47.6243 297.541 40.8426 273.75M60.9537 335.007L40.8426 273.75M60.9537 335.007C102.142 431.931 62.5071 510.207 37.5409 537.23" stroke="white" stroke-opacity="0.25" stroke-width="2"/>
<path d="M31.1415 0.607266C-3.77882 68.9231 16.6253 188.796 40.8426 273.75M60.9537 335.007C54.7051 318.593 47.6243 297.541 40.8426 273.75M60.9537 335.007L40.8426 273.75M60.9537 335.007C102.142 431.931 62.5071 510.207 37.5409 537.23" stroke="white" stroke-opacity="0.25" stroke-width="2"/>
<ellipse cx="20.9619" cy="174.493" rx="6" ry="4" transform="rotate(90.7179 20.9619 174.493)" fill="#D9D9D9"/>
<ellipse cx="24.6659" cy="38.5291" rx="6" ry="4" transform="rotate(90.7179 24.6659 38.5291)" fill="#D9D9D9"/>
<ellipse cx="34.9407" cy="216.172" rx="3.5" ry="2.5" transform="rotate(90.7179 34.9407 216.172)" fill="#D9D9D9"/>
<ellipse cx="13.599" cy="3.88771" rx="3.5" ry="2.5" transform="rotate(90.7179 13.599 3.88771)" fill="#D9D9D9"/>
<circle cx="28.0715" cy="245.588" r="2" transform="rotate(90.7179 28.0715 245.588)" fill="#D9D9D9"/>
<circle cx="8.56677" cy="46.328" r="2" transform="rotate(90.7179 8.56677 46.328)" fill="#D9D9D9"/>
<circle cx="67.3267" cy="385.091" r="2" transform="rotate(90.7179 67.3267 385.091)" fill="#D9D9D9"/>
<circle cx="70.9104" cy="498.145" r="2" transform="rotate(90.7179 70.9104 498.145)" fill="#D9D9D9"/>
<ellipse cx="60.272" cy="349.5" rx="3.5" ry="2.5" transform="rotate(90.7179 60.272 349.5)" fill="#D9D9D9"/>
<ellipse cx="74.489" cy="372.18" rx="6" ry="4" transform="rotate(90.7179 74.489 372.18)" fill="#D9D9D9"/>
<ellipse cx="65.0361" cy="488.07" rx="6" ry="4" transform="rotate(90.7179 65.0361 488.07)" fill="#D9D9D9"/>
</svg>
